<svg width="79" height="80" viewBox="0 0 79 80" fill="none" xmlns="http://www.w3.org/2000/svg">
<path d="M59.1813 43.4877V36.4772L54.0029 39.9825L59.1813 43.4877ZM63.3266 47.4102C63.326 47.5014 63.3195 47.5925 63.3071 47.6829L63.2908 47.7749L63.2551 47.949L63.2226 48.0508C63.2071 48.1033 63.1886 48.1548 63.1674 48.2052L63.1219 48.3038C63.1006 48.3516 63.0778 48.3987 63.0537 48.445L62.992 48.5436C62.9178 48.6626 62.8306 48.7728 62.7321 48.8721L62.6476 48.9542C62.6099 48.9886 62.5709 49.0215 62.5306 49.0528L62.4364 49.1251L62.4039 49.1513L40.3716 64.0068C40.0312 64.2369 39.631 64.3597 39.2216 64.3597C38.8122 64.3597 38.4119 64.2369 38.0716 64.0068L16.0392 49.1481L16.0067 49.1218C15.9325 49.0699 15.862 49.0128 15.7956 48.9509L15.7111 48.8688L15.6072 48.7571L15.5389 48.6651C15.4535 48.5531 15.3805 48.4319 15.3213 48.3038L15.2758 48.2019C15.2554 48.1512 15.237 48.0997 15.2206 48.0475L15.1881 47.949C15.1751 47.8898 15.1621 47.8307 15.1556 47.7716L15.1361 47.6796C15.1236 47.5892 15.1171 47.4982 15.1166 47.4069V32.5548C15.1166 32.4635 15.1232 32.3724 15.1361 32.2821L15.1523 32.1934L15.1881 32.016L15.2206 31.9174C15.2976 31.6539 15.4306 31.4106 15.6104 31.2046L15.7111 31.0929L15.7956 31.0107C15.8621 30.9491 15.9326 30.892 16.0067 30.8399L16.0392 30.8136L38.0716 15.9615C38.4121 15.7318 38.8123 15.6092 39.2216 15.6092C39.6309 15.6092 40.0311 15.7318 40.3716 15.9615L62.4039 30.8136L62.4364 30.8399L62.5339 30.9122L62.6476 31.0107C62.6801 31.037 62.7028 31.0633 62.7321 31.0929C62.8312 31.1917 62.9184 31.3019 62.992 31.4214L63.0537 31.5199C63.0782 31.5661 63.1009 31.6133 63.1219 31.6612L63.1674 31.7598C63.1901 31.8123 63.2064 31.8649 63.2226 31.9142L63.2551 32.016C63.2681 32.0751 63.2811 32.1343 63.2876 32.1934L63.3071 32.2821C63.3196 32.3724 63.3261 32.4635 63.3266 32.5548V47.4102ZM39.2216 0.560669C17.6928 0.560669 0.237793 18.2085 0.237793 39.9825C0.237793 61.7532 17.6928 79.4043 39.2216 79.4043C60.7536 79.4043 78.2054 61.7565 78.2054 39.9825C78.2054 18.2118 60.7536 0.560669 39.2216 0.560669ZM39.2216 35.0285L31.8959 39.9825L39.2216 44.9431L46.5473 39.9825L39.2216 35.0285ZM41.2942 48.5764V58.3498L57.5245 47.4102L50.2735 42.5055L41.2942 48.5764ZM20.9187 47.4069L37.1489 58.3465V48.5764L28.1697 42.5022L20.9187 47.4069ZM57.5245 32.558L41.2942 21.6185V31.3885L50.2735 37.4661L57.5245 32.558ZM37.1489 31.3885V21.6185L20.9187 32.558L28.1697 37.4628L37.1489 31.3885ZM19.2619 36.4772V43.4877L24.4402 39.9825L19.2619 36.4772Z" fill="#F4F4F4"/>
</svg>
