<svg width="79" height="80" viewBox="0 0 79 80" fill="none" xmlns="http://www.w3.org/2000/svg">
<path d="M38.3569 79.389C38.7249 79.3992 39.0943 79.4043 39.4648 79.4043C40.027 79.4043 40.5865 79.3925 41.143 79.3692C40.1991 79.3769 39.2654 79.3836 38.3569 79.389Z" fill="#F4F4F4"/>
<path d="M29.3024 78.082C12.4555 73.6 0.042968 58.2408 0.0429688 39.9825C0.0429697 18.2104 17.6927 0.560668 39.4648 0.560669C61.2368 0.56067 78.8866 18.2104 78.8866 39.9825C78.8866 57.3358 67.674 72.0703 52.0985 77.3364C51.8085 76.662 51.5895 75.9064 51.5895 75.1838V63.9107C51.2856 61.7837 50.1623 57.5739 48.0767 57.4674C54.5497 57.5574 67.3116 53.8693 67.4188 38.3269C67.5266 32.1833 64.0505 26.4258 62.2991 24.3151C62.6571 21.6723 63.0199 15.9158 61.6067 14.0315C60.1936 12.1473 53.6381 15.9942 50.537 18.1532C45.4928 17.1325 34.2504 15.7036 29.6341 18.1532C27.063 16.5045 21.273 13.3721 18.6822 14.0315C16.0914 14.691 16.9746 21.8824 17.74 25.3957C16.0208 27.486 12.6693 32.9988 13.0175 38.3269C13.4527 44.9871 17.9137 57.4655 32.6023 57.4655C31.8564 58.6348 30.3549 61.2672 30.3163 62.4421C30.274 63.7282 25.1266 63.4646 23.4589 63.3793C23.2222 63.3672 23.0556 63.3586 22.9837 63.3586C22.4048 63.3586 18.8832 59.7406 18.256 58.7757C17.6289 57.8109 14.2433 55.5918 13.0175 55.7848C11.7917 55.9778 10.8269 57.1838 12.1294 57.7627C13.4319 58.3416 16.0369 61.3271 17.3394 63.9107C18.6419 66.4943 21.5846 68.5942 24.6238 68.5942H29.972V75.1838C29.9541 75.9313 29.7824 77.1662 29.3024 78.082Z" fill="#F4F4F4"/>
</svg>
