<svg width="36" height="36" viewBox="0 0 36 36" fill="none" xmlns="http://www.w3.org/2000/svg">
<path fill-rule="evenodd" clip-rule="evenodd" d="M17.4995 35.8507C17.6659 35.8553 17.8328 35.8576 18.0003 35.8576C18.2544 35.8576 18.5073 35.8523 18.7588 35.8418C18.3322 35.8452 17.9102 35.8483 17.4995 35.8507ZM13.409 35.2602C5.79755 33.2352 0.189627 26.296 0.189628 18.0469C0.189628 8.21033 8.16375 0.236205 18.0003 0.236205C27.8369 0.236206 35.811 8.21033 35.811 18.0469C35.811 25.8871 30.7452 32.5441 23.7082 34.9233C23.5772 34.6186 23.4782 34.2773 23.4782 33.9508L23.4782 28.8576C23.3409 27.8967 22.8334 25.9947 21.8911 25.9465C24.8156 25.9872 30.5814 24.3209 30.6299 17.2989C30.6785 14.5232 29.1081 11.922 28.3168 10.9684C28.4785 9.7744 28.6424 7.17359 28.004 6.32231C27.3655 5.47103 24.4038 7.20904 23.0027 8.18446C20.7238 7.72333 15.6444 7.07777 13.5588 8.18446C12.3972 7.4396 9.78125 6.02437 8.61074 6.32231C7.44023 6.62026 7.83926 9.86931 8.18509 11.4566C7.40833 12.401 5.89415 14.8917 6.05146 17.2989C6.24809 20.308 8.26356 25.9457 14.8998 25.9457C14.5628 26.474 13.8844 27.6633 13.867 28.1941C13.8479 28.7751 11.5223 28.6561 10.7689 28.6175C10.6619 28.6121 10.5866 28.6082 10.5541 28.6082C10.2926 28.6082 8.70155 26.9736 8.41821 26.5377C8.13488 26.1018 6.60526 25.0992 6.05146 25.1864C5.49766 25.2735 5.06176 25.8184 5.65022 26.08C6.23869 26.3415 7.41561 27.6903 8.00408 28.8576C8.59255 30.0249 9.92206 30.9736 11.2952 30.9736L13.7115 30.9736L13.7115 33.9508C13.7034 34.2885 13.6258 34.8464 13.409 35.2602Z" fill="#2F2F39"/>
</svg>
