<svg width="80" height="80" viewBox="0 0 80 80" fill="none" xmlns="http://www.w3.org/2000/svg">
<path fill-rule="evenodd" clip-rule="evenodd" d="M0.819336 39.9825C0.819335 61.7546 18.4691 79.4043 40.2411 79.4043C62.0132 79.4043 79.663 61.7546 79.663 39.9825C79.663 18.2104 62.0132 0.56067 40.2411 0.560669C18.4691 0.560668 0.819337 18.2104 0.819336 39.9825ZM67.0904 21.6359C70.3484 26.3946 72.3742 32.0635 72.708 38.1827H63.011C62.8504 33.3072 62.0444 28.9305 60.8489 25.0429C63.1531 23.9994 65.2325 22.8368 67.0904 21.6359ZM63.011 41.7823L72.708 41.7823C72.3742 47.9015 70.3484 53.5703 67.0904 58.3291C65.2325 57.1282 63.1531 55.9656 60.8489 54.9221C62.0444 51.0344 62.8504 46.6578 63.011 41.7823ZM64.8878 18.7726C61.7144 15.0884 57.7291 12.1235 53.2095 10.1557C53.3423 10.3306 53.4751 10.5081 53.608 10.6882C55.7788 13.6316 57.9473 17.2731 59.6568 21.6303C61.5718 20.7463 63.3144 19.775 64.8878 18.7726ZM42.0409 7.51563C43.6246 7.60202 45.1781 7.80175 46.6935 8.10683C47.9372 9.37282 49.3237 10.9435 50.7111 12.8248C52.7257 15.5563 54.7425 18.9417 56.3293 23.0044C52.2324 24.5037 47.477 25.5557 42.0409 25.7479V7.51563ZM38.4414 7.51563C36.8577 7.60202 35.3042 7.80175 33.7888 8.10683C32.5451 9.37282 31.1587 10.9435 29.7712 12.8247C27.7567 15.5563 25.7398 18.9417 24.153 23.0044C28.2499 24.5037 33.0053 25.5557 38.4414 25.7479L38.4414 7.51563ZM15.5945 18.7726C18.7679 15.0884 22.7532 12.1235 27.2728 10.1557C27.14 10.3306 27.0072 10.5081 26.8743 10.6882C24.7036 13.6316 22.535 17.2731 20.8255 21.6303C18.9105 20.7463 17.1679 19.7751 15.5945 18.7726ZM13.3919 21.6359C10.1339 26.3946 8.10812 32.0635 7.77429 38.1827H17.4713C17.6319 33.3072 18.4379 28.9305 19.6334 25.0429C17.3293 23.9994 15.2498 22.8368 13.3919 21.6359ZM13.3919 58.3291C10.1339 53.5703 8.10812 47.9015 7.77429 41.7823H17.4713C17.6319 46.6577 18.4379 51.0344 19.6334 54.9221C17.3293 55.9656 15.2498 57.1282 13.3919 58.3291ZM15.5945 61.1923C18.7679 64.8766 22.7533 67.8415 27.2728 69.8093C27.14 69.6344 27.0072 69.4568 26.8743 69.2767C24.7036 66.3334 22.535 62.6918 20.8255 58.3347C18.9106 59.2187 17.1679 60.1899 15.5945 61.1923ZM38.4414 72.4493C36.8577 72.3629 35.3042 72.1632 33.7888 71.8582C32.5451 70.5921 31.1587 69.0214 29.7712 67.1402C27.7567 64.4087 25.7398 61.0233 24.153 56.9605C28.2499 55.4613 33.0053 54.4092 38.4414 54.2171V72.4493ZM42.0409 72.4493C43.6246 72.3629 45.1781 72.1632 46.6935 71.8581C47.9372 70.5921 49.3237 69.0214 50.7111 67.1402C52.7257 64.4087 54.7425 61.0233 56.3293 56.9606C52.2324 55.4613 47.477 54.4092 42.0409 54.2171V72.4493ZM64.8878 61.1923C61.7144 64.8766 57.7291 67.8415 53.2095 69.8093C53.3423 69.6344 53.4751 69.4568 53.608 69.2767C55.7788 66.3334 57.9473 62.6918 59.6568 58.3347C61.5718 59.2187 63.3144 60.1899 64.8878 61.1923ZM42.0409 41.7823H59.4094C59.2553 46.1408 58.5484 50.0618 57.5015 53.5566C53.06 51.9381 47.9121 50.8089 42.0409 50.6154V41.7823ZM38.4414 50.6154V41.7823H21.073C21.227 46.1408 21.9339 50.0618 22.9808 53.5566C27.4224 51.9381 32.5702 50.8089 38.4414 50.6154ZM38.4414 38.1827H21.073C21.227 33.8242 21.9339 29.9032 22.9808 26.4084C27.4223 28.0269 32.5702 29.1561 38.4414 29.3495V38.1827ZM42.0409 29.3495V38.1827L59.4094 38.1827C59.2553 33.8241 58.5484 29.9032 57.5015 26.4084C53.06 28.0269 47.9121 29.1561 42.0409 29.3495Z" fill="#F4F4F4"/>
</svg>
