<svg width="37" height="36" viewBox="0 0 37 36" fill="none" xmlns="http://www.w3.org/2000/svg">
<path fill-rule="evenodd" clip-rule="evenodd" d="M0.918632 18.0469C0.918631 27.8835 8.89275 35.8576 18.7293 35.8576C28.5659 35.8576 36.54 27.8835 36.54 18.0469C36.54 8.21033 28.5659 0.236206 18.7293 0.236205C8.89276 0.236205 0.918632 8.21033 0.918632 18.0469ZM30.8598 9.75796C32.3317 11.9079 33.247 14.4691 33.3978 17.2338L29.0167 17.2338C28.9441 15.031 28.58 13.0536 28.0399 11.2972C29.0809 10.8258 30.0204 10.3005 30.8598 9.75796ZM29.0167 18.86L33.3978 18.86C33.247 21.6247 32.3317 24.1859 30.8598 26.3358C30.0204 25.7933 29.0809 25.268 28.0399 24.7966C28.58 23.0402 28.9441 21.0628 29.0167 18.86ZM29.8646 8.46433C28.4309 6.79981 26.6303 5.46026 24.5884 4.57122C24.6484 4.65025 24.7084 4.73044 24.7684 4.81182C25.7492 6.14162 26.7289 7.78686 27.5013 9.75541C28.3665 9.35602 29.1538 8.91722 29.8646 8.46433ZM19.5425 3.37844C20.258 3.41747 20.9599 3.5077 21.6445 3.64554C22.2064 4.21751 22.8328 4.92716 23.4596 5.77709C24.3698 7.0112 25.281 8.54072 25.9979 10.3762C24.1469 11.0536 21.9985 11.5289 19.5425 11.6157L19.5425 3.37844ZM17.9162 3.37844C17.2007 3.41747 16.4988 3.5077 15.8142 3.64554C15.2523 4.21751 14.6259 4.92716 13.999 5.77709C13.0889 7.0112 12.1777 8.54072 11.4607 10.3762C13.3117 11.0536 15.4602 11.5289 17.9162 11.6157L17.9162 3.37844ZM7.59402 8.46434C9.02774 6.79981 10.8283 5.46026 12.8702 4.57122C12.8103 4.65024 12.7502 4.73043 12.6902 4.81181C11.7095 6.14161 10.7297 7.78686 9.95737 9.75542C9.0922 9.35603 8.30488 8.91723 7.59402 8.46434ZM6.59887 9.75796C5.12693 11.9079 4.21168 14.4691 4.06086 17.2338L8.44195 17.2338C8.51453 15.031 8.87865 13.0537 9.41879 11.2972C8.37777 10.8258 7.43827 10.3005 6.59887 9.75796ZM6.59888 26.3358C5.12693 24.1859 4.21168 21.6247 4.06086 18.86L8.44195 18.86C8.51453 21.0628 8.87865 23.0402 9.41879 24.7966C8.37778 25.268 7.43827 25.7933 6.59888 26.3358ZM7.59402 27.6295C9.02774 29.294 10.8283 30.6336 12.8703 31.5226C12.8103 31.4436 12.7503 31.3634 12.6902 31.282C11.7095 29.9522 10.7297 28.3069 9.95738 26.3384C9.09221 26.7378 8.30488 27.1766 7.59402 27.6295ZM17.9162 32.7154C17.2007 32.6763 16.4988 32.5861 15.8142 32.4483C15.2523 31.8763 14.6259 31.1666 13.999 30.3167C13.0889 29.0826 12.1777 27.5531 11.4607 25.7176C13.3117 25.0402 15.4602 24.5649 17.9162 24.4781L17.9162 32.7154ZM19.5425 32.7154C20.258 32.6763 20.9598 32.5861 21.6445 32.4483C22.2064 31.8763 22.8328 31.1666 23.4596 30.3167C24.3698 29.0826 25.281 27.5531 25.9979 25.7176C24.1469 25.0402 21.9985 24.5649 19.5425 24.4781L19.5425 32.7154ZM29.8646 27.6295C28.4309 29.294 26.6303 30.6335 24.5884 31.5226C24.6484 31.4436 24.7084 31.3634 24.7684 31.282C25.7492 29.9522 26.7289 28.3069 27.5013 26.3384C28.3665 26.7378 29.1538 27.1766 29.8646 27.6295ZM19.5425 18.86L27.3895 18.86C27.3199 20.8292 27.0005 22.6007 26.5275 24.1797C24.5208 23.4484 22.1951 22.9382 19.5425 22.8508L19.5425 18.86ZM17.9162 22.8508L17.9162 18.86L10.0692 18.86C10.1388 20.8292 10.4581 22.6007 10.9311 24.1797C12.9378 23.4484 15.2636 22.9382 17.9162 22.8508ZM17.9162 17.2338L10.0692 17.2338C10.1388 15.2646 10.4581 13.4931 10.9311 11.9142C12.9378 12.6454 15.2636 13.1556 17.9162 13.243L17.9162 17.2338ZM19.5425 13.243L19.5425 17.2338L27.3895 17.2338C27.3199 15.2646 27.0005 13.4931 26.5275 11.9141C24.5208 12.6454 22.1951 13.1556 19.5425 13.243Z" fill="#2F2F39"/>
</svg>
