<svg width="80" height="80" viewBox="0 0 80 80" fill="none" xmlns="http://www.w3.org/2000/svg">
<path d="M39.9514 46.6695C43.6445 46.6695 46.6384 43.6756 46.6384 39.9825C46.6384 36.2894 43.6445 33.2955 39.9514 33.2955C36.2583 33.2955 33.2644 36.2894 33.2644 39.9825C33.2644 43.6756 36.2583 46.6695 39.9514 46.6695Z" fill="#F4F4F4"/>
<path fill-rule="evenodd" clip-rule="evenodd" d="M20.6553 28.6862C20.6553 24.2679 24.237 20.6862 28.6553 20.6862H51.2479C55.6662 20.6862 59.2479 24.2679 59.2479 28.6862V51.2788C59.2479 55.6971 55.6662 59.2788 51.2479 59.2788H28.6553C24.237 59.2788 20.6553 55.6971 20.6553 51.2788V28.6862ZM39.9514 51.6695C46.4059 51.6695 51.6384 46.437 51.6384 39.9825C51.6384 33.5279 46.4059 28.2955 39.9514 28.2955C33.4968 28.2955 28.2644 33.5279 28.2644 39.9825C28.2644 46.437 33.4968 51.6695 39.9514 51.6695ZM52.73 29.745C54.2139 29.745 55.4169 28.5421 55.4169 27.0582C55.4169 25.5743 54.2139 24.3714 52.73 24.3714C51.2462 24.3714 50.0432 25.5743 50.0432 27.0582C50.0432 28.5421 51.2462 29.745 52.73 29.745Z" fill="#F4F4F4"/>
<path fill-rule="evenodd" clip-rule="evenodd" d="M39.9516 79.4043C18.1795 79.4043 0.529785 61.7546 0.529785 39.9825C0.529785 18.2104 18.1795 0.560669 39.9516 0.560669C61.7237 0.560669 79.3734 18.2104 79.3734 39.9825C79.3734 61.7546 61.7237 79.4043 39.9516 79.4043ZM15.6553 28.6862C15.6553 21.5065 21.4756 15.6862 28.6553 15.6862H51.2479C58.4276 15.6862 64.2479 21.5065 64.2479 28.6862V51.2788C64.2479 58.4585 58.4276 64.2788 51.2479 64.2788H28.6553C21.4756 64.2788 15.6553 58.4585 15.6553 51.2788V28.6862Z" fill="#F4F4F4"/>
</svg>
