<svg width="80" height="80" viewBox="0 0 80 80" fill="none" xmlns="http://www.w3.org/2000/svg">
<path fill-rule="evenodd" clip-rule="evenodd" d="M0.266602 39.9825C0.266601 61.7546 17.9163 79.4043 39.6884 79.4043C61.4605 79.4043 79.1102 61.7546 79.1102 39.9825C79.1102 18.2104 61.4605 0.56067 39.6884 0.560669C17.9163 0.560668 0.266603 18.2104 0.266602 39.9825ZM41.8068 61.7664L41.8068 45.6267C41.8433 44.7239 41.9487 43.4692 42.2382 42.3859C42.9549 40.4264 44.4393 38.5702 47.4911 38.5702C52.2928 38.5702 52.3987 44.7488 52.3987 44.7488V61.7663H61.2252L61.2252 43.4776C61.2252 31.6859 52.7526 31.6855 48.5863 31.6853C45.0883 31.6852 42.5354 34.5725 41.8068 35.4987V32.1798H32.9096V61.7664H41.8068ZM27.6137 22.9296C27.6137 25.5425 25.4955 27.6607 22.8826 27.6607C20.2698 27.6607 18.1516 25.5425 18.1516 22.9296C18.1516 20.3168 20.2698 18.1986 22.8826 18.1986C25.4955 18.1986 27.6137 20.3168 27.6137 22.9296ZM27.6137 32.1798V61.7664H18.1516V32.1798H27.6137Z" fill="#F4F4F4"/>
</svg>
