<svg width="37" height="36" viewBox="0 0 37 36" fill="none" xmlns="http://www.w3.org/2000/svg">
<path fill-rule="evenodd" clip-rule="evenodd" d="M0.460136 18.0469C0.460135 27.8835 8.43426 35.8576 18.2708 35.8576C28.1074 35.8576 36.0815 27.8835 36.0815 18.0469C36.0815 8.21033 28.1074 0.236206 18.2708 0.236205C8.43426 0.236205 0.460136 8.21033 0.460136 18.0469ZM19.2282 27.8889L19.2282 20.5969C19.2446 20.1891 19.2923 19.6222 19.4231 19.1328C19.7469 18.2475 20.4175 17.4089 21.7963 17.4089C23.9657 17.4089 24.0136 20.2003 24.0136 20.2003L24.0136 27.8888L28.0014 27.8888L28.0014 19.626C28.0014 14.2985 24.1735 14.2984 22.2911 14.2983L22.2908 14.2983C20.7104 14.2982 19.5574 15.6027 19.2282 16.0211L19.2282 14.5217L15.2084 14.5217L15.2084 27.8889L19.2282 27.8889ZM12.8157 10.3425C12.8157 11.523 11.8588 12.4799 10.6783 12.4799C9.49777 12.4799 8.5408 11.523 8.5408 10.3425C8.5408 9.16197 9.49777 8.20499 10.6783 8.20499C11.8588 8.20499 12.8157 9.16197 12.8157 10.3425ZM12.8157 14.5217L12.8157 27.8889L8.5408 27.8889L8.5408 14.5217L12.8157 14.5217Z" fill="#2F2F39"/>
</svg>
