<svg width="80" height="80" viewBox="0 0 80 80" fill="none" xmlns="http://www.w3.org/2000/svg">
<path d="M39.8018 43.5761C40.1606 43.8505 40.6587 43.8505 41.0171 43.5761L62.293 27.2974C63.0522 26.7164 62.6416 25.5032 61.6855 25.5032H19.1338C18.1777 25.5032 17.7666 26.7164 18.5264 27.2974L39.8018 43.5761Z" fill="#F4F4F4"/>
<path fill-rule="evenodd" clip-rule="evenodd" d="M0.987305 39.9825C0.987305 61.7546 18.6372 79.4043 40.4092 79.4043C62.1812 79.4043 79.8311 61.7546 79.8311 39.9825C79.8311 18.2104 62.1812 0.560669 40.4092 0.560669C18.6372 0.560669 0.987305 18.2104 0.987305 39.9825ZM15.916 27.6535C15.916 25.4443 17.707 23.6535 19.916 23.6535H60.9028C63.1118 23.6535 64.9028 25.4443 64.9028 27.6535V52.3114C64.9028 54.5206 63.1118 56.3114 60.9028 56.3114H19.916C17.707 56.3114 15.916 54.5206 15.916 52.3114V27.6535Z" fill="#F4F4F4"/>
</svg>
